# AST/ASF file generated using VICON BodyLanguage
# -----------------------------------------------
:version 1.10
:name VICON
:units
  mass 1.0
  length 0.45
  angle deg
:documentation
   .ast/.asf automatically generated from VICON data using
   VICON BodyBuilder and BodyLanguage model FoxedUp or BRILLIANT.MOD
:root
   order TX TY TZ RX RY RZ
   axis XYZ
   position 0 0 0  
   orientation 0 0 0 
:bonedata
  begin
     id 1 
     name lhipjoint
     direction 0.611804 -0.747784 0.257906 
     length 2.29243 
     axis 0 0 0  XYZ
  end
  begin
     id 2 
     name lfemur
     direction 0.34202 -0.939693 0  
     length 7.31159  
     axis 0 0 20  XYZ
    dof rx ry rz
    limits (-160.0 20.0)
           (-70.0 70.0)
           (-60.0 70.0)
  end
  begin
     id 3 
     name ltibia
     direction 0.34202 -0.939693 0   
     length 7.33391   
     axis 0 0 20   XYZ
    dof rx
    limits (-10.0 170.0)
  end
  begin
     id 4 
     name lfoot
     direction 0.122263 -0.335914 0.933924   
     length 1.76083   
     axis -90 7.62852e-016 20   XYZ
    dof rx rz
    limits (-45.0 90.0)
           (-70.0 20.0)
  end
  begin
     id 5 
     name ltoes
     direction 1.53533e-011 -4.2177e-011 1   
     length 0.879206   
     axis -90 7.62852e-016 20   XYZ
    dof rx
    limits (-90.0 20.0)
  end
  begin
     id 6 
     name rhipjoint
     direction -0.646469 -0.721248 0.248754   
     length 2.37677  
     axis 0 0 0  XYZ 
  end
  begin
     id 7 
     name rfemur
     direction -0.34202 -0.939693 0   
     length 7.18623   
     axis 0 0 -20   XYZ
    dof rx ry rz
    limits (-160.0 20.0)
           (-70.0 70.0)
           (-70.0 60.0)
  end
  begin
     id 8 
     name rtibia
     direction -0.34202 -0.939693 0   
     length 7.36567   
     axis 0 0 -20   XYZ
    dof rx
    limits (-10.0 170.0)
 end
 begin
     id 9 
     name rfoot
     direction -0.126681 -0.348054 0.928876   
     length 1.71902  
     axis -90 -7.62852e-016 -20   XYZ
    dof rx rz
    limits (-45.0 90.0)
           (-20.0 70.0)
  end
  begin
     id 10 
     name rtoes
     direction -1.53551e-011 -4.21898e-011 1   
     length 0.857792   
     axis -90 -7.62852e-016 -20   XYZ
    dof rx
    limits (-90.0 20.0)
  end
  begin
     id 11 
     name lowerback
     direction 0.0106509 0.999778 0.0181844   
     length 2.07668   
     axis 0 0 0   XYZ
    dof rx ry rz
    limits (-20.0 45.0)
           (-30.0 30.0)
           (-30.0 30.0)
  end
  begin
     id 12 
     name upperback
     direction -0.00456018 0.999989 -0.000590935   
     length 2.08011   
     axis 0 0 0   XYZ
    dof rx ry rz
    limits (-20.0 45.0)
           (-30.0 30.0)
           (-30.0 30.0)
  end
  begin
     id 13 
     name thorax
     direction -0.00910382 0.999916 -0.00923765   
     length 2.07397   
     axis 0 0 0   XYZ
    dof rx ry rz
    limits (-20.0 45.0)
           (-30.0 30.0)
           (-30.0 30.0)
  end
  begin
     id 14 
     name lowerneck
     direction 0.00171967 0.99778 0.0665733   
     length 1.67556   
     axis 0 0 0   XYZ
    dof rx ry rz
    limits (-20.0 45.0)
           (-30.0 30.0)
           (-30.0 30.0)
  end
  begin
     id 15 
     name upperneck
     direction -0.0143166 0.991302 -0.130828   
     length 1.68462   
     axis 0 0 0   XYZ
    dof rx ry rz
    limits (-20.0 45.0)
           (-30.0 30.0)
           (-30.0 30.0)
  end
  begin
     id 16
     name head
     direction -0.00606378 0.998665 -0.0512995  
     length 1.69269  
     axis 0 0 0   XYZ
    dof rx ry rz
    limits (-20.0 45.0)
           (-30.0 30.0)
           (-30.0 30.0)
  end
  begin
     id 17 
     name lclavicle
     direction 0.9638 0.179341 0.197297  
     length 4.12888  
     axis 0 0 0   XYZ
    dof ry rz
    limits (-20.0 10.0)
           (0.0 20.0)
  end
  begin
     id 18 
     name lhumerus
     direction 1 -4.48972e-011 -2.47351e-027   
     length 5.01834   
     axis -180 -30 -90   XYZ
    dof rx ry rz
    limits (-60.0 90.0)
           (-90.0 90.0)
           (-90.0 90.0)
  end
  begin
     id 19
     name lradius
     direction 1 -4.48965e-011 1.51591e-026   
     length 3.4869   
     axis -180 -30 -90   XYZ
    dof rx
    limits (-10.0 170.0)
  end
  begin
     id 20
     name lwrist
     direction 1 -4.48957e-011 2.70032e-026   
     length 1.74345   
     axis -1.81515e-014 90 90   XYZ
    dof ry
    limits (-180.0 0.0)
 end
  begin
     id 21 
     name lhand
     direction 1 -4.48951e-011 5.40064e-026   
     length 0.76799   
     axis -3.44607e-014 90 90   XYZ
    dof rx rz
    limits (-90.0 90.0)
           (-45.0 45.0)
  end
  begin
     id 22 
     name lfingers
     direction 1 -4.48971e-011 1.08013e-025   
     length 0.619174   
     axis -6.89214e-014 90 90   XYZ
    dof rx
    limits (0.0 90.0)
  end
  begin
     id 23
     name lthumb
     direction 0.707107 -6.34931e-011 0.707107   
     length 0.889013   
     axis -90 45 2.85299e-015   XYZ
    dof rx rz
    limits (-45.0 45.0)
           (-45.0 45.0)
  end
  begin
     id 24 
     name rclavicle
     direction -0.961409 0.252588 0.109054   
     length 4.04305  
     axis 0 0 0   XYZ 
    dof ry rz
    limits (-10.0 20.0)
           (-20.0 0.0)
  end
  begin
     id 25 
     name rhumerus
     direction -1 -4.4897e-011 1.33872e-017  
     length 4.70164   
     axis -180 30 90   XYZ
    dof rx ry rz
    limits (-90.0 60.0)
           (-90.0 90.0)
           (-90.0 90.0)
  end
  begin
     id 26 
     name rradius
     direction -1 -4.48954e-011 1.83844e-026   
     length 3.49911   
     axis -180 30 90   XYZ
    dof rx
    limits (-10.0 170.0)
  end
  begin
     id 27 
     name rwrist
     direction -1 -4.49008e-011 2.70032e-026   
     length 1.74955   
     axis -1.81515e-014 -90 -90   XYZ
    dof ry
    limits (-180.0 0.0)
  end
  begin
     id 28
     name rhand
     direction -1 -4.48916e-011 5.40064e-026   
     length 0.739335   
     axis -3.44607e-014 -90 -90   XYZ
    dof rx rz
    limits (-90.0 90.0)
           (-45.0 45.0)
  end
  begin
     id 29
     name rfingers
     direction -1 -4.48987e-011 1.08013e-025   
     length 0.596071   
     axis -6.89214e-014 -90 -90   XYZ
    dof rx
    limits (0.0 90.0)
  end
  begin
     id 30
     name rthumb
     direction -0.707107 -6.34935e-011 0.707107   
     length 0.855843   
     axis -90 -45 -2.85299e-015   XYZ
    dof rx rz
    limits (-45.0 45.0)
           (-45.0 45.0)
  end
:hierarchy
  begin
    root lhipjoint rhipjoint lowerback
    lhipjoint lfemur
    lfemur ltibia
    ltibia lfoot
    lfoot ltoes
    rhipjoint rfemur
    rfemur rtibia
    rtibia rfoot
    rfoot rtoes
    lowerback upperback
    upperback thorax
    thorax lowerneck lclavicle rclavicle
    lowerneck upperneck
    upperneck head
    lclavicle lhumerus
    lhumerus lradius
    lradius lwrist
    lwrist lhand lthumb
    lhand lfingers
    rclavicle rhumerus
    rhumerus rradius
    rradius rwrist
    rwrist rhand rthumb
    rhand rfingers
  end

#!OML:ASF I:\salsa\salsa 7_09\Patient 1\Session 1\dancermale.ASF
:FULLY-SPECIFIED
:DEGREES
1051
root 0.232902 17.1399 -9.39325 193.014 115.48 180.863
lowerback -0.798862 4.42027 4.01928
upperback -2.20855 5.94722 0.744384
thorax -1.49786 2.92879 -1.4867
lowerneck -7.63782 -6.99965 -2.01956
upperneck 25.362 -9.81352 3.46014
head 9.52198 -4.18074 0.53765
rclavicle 8.06072e-014 2.78299e-014
rhumerus 17.9658 5.91328 -102.688
rradius 48.4363
rwrist 5.16596
rhand -33.3584 8.58418
rfingers 7.12502
rthumb -6.56025 -21.2942
lclavicle 8.06072e-014 2.78299e-014
lhumerus -30.8589 -30.9817 98.0524
lradius 74.0055
lwrist 25.2777
lhand -15.4142 53.1971
lfingers 7.12502
lthumb 10.7652 1162.9
rfemur -47.0856 -15.7296 22.9812
rtibia 59.5695
rfoot -7.01701 -17.505
rtoes 10.267
lfemur -13.5077 -3.55108 -23.2344
ltibia 32.3883
lfoot 334.958 12.987
ltoes -9.25289
1052
root 0.292417 17.1027 -9.40566 193.148 115.319 181.215
lowerback -0.622174 4.16903 3.97152
upperback -2.26698 5.62449 0.802908
thorax -1.68444 2.76441 -1.42106
lowerneck -7.56585 -6.91273 -1.86406
upperneck 25.6604 -9.65403 3.18393
head 9.58525 -4.11133 0.436199
rclavicle 1.96797e-014 -3.4191e-014
rhumerus 18.9718 6.32646 -103.487
rradius 47.2704
rwrist 5.16413
rhand -32.6832 8.04551
rfingers 7.12502
rthumb -5.90836 -21.8521
lclavicle 1.96797e-014 -3.4191e-014
lhumerus -29.5641 -32.9122 98.2394
lradius 73.7662
lwrist 24.2709
lhand -15.0756 52.5455
lfingers 7.12502
lthumb 11.0918 1162.23
rfemur -48.568 -16.1585 24.0747
rtibia 59.6003
rfoot -9.02933 -17.2826
rtoes 10.6038
lfemur -13.0019 -3.49954 -23.7217
ltibia 32.2338
lfoot 334.449 13.5622
ltoes -8.92043
1053
root 0.37083 17.0616 -9.40586 193.403 115.084 181.708
lowerback -0.629962 3.88916 3.89657
upperback -2.26439 5.25021 0.821308
thorax -1.70488 2.5782 -1.36183
lowerneck -7.6485 -6.85247 -1.66294
upperneck 26.0186 -9.54926 2.92829
head 9.70065 -4.05716 0.321036
rclavicle 4.40308e-014 3.57812e-014
rhumerus 19.8007 6.82607 -104.317
rradius 46.3668
rwrist 5.6594
rhand -32.3509 7.78515
rfingers 7.12502
rthumb -5.58757 -22.1212
lclavicle 4.40308e-014 3.57812e-014
lhumerus -28.3786 -35.0446 98.5255
lradius 73.5421
lwrist 24.3683
lhand -14.9564 52.0664
lfingers 7.12502
lthumb 11.2068 1161.75
rfemur -49.9056 -16.8665 25.3496
rtibia 59.1412
rfoot -10.1512 -18.0478
rtoes 11.298
lfemur -12.4974 -3.36631 -24.2746
ltibia 32.2158
lfoot 334.027 14.1624
ltoes -7.89624
1054
root 0.470543 17.015 -9.39842 193.996 114.797 182.454
lowerback -0.983082 3.61443 3.7402
upperback -2.20124 4.86284 0.817644
thorax -1.47359 2.392 -1.25273
lowerneck -7.88374 -6.81014 -1.52541
upperneck 26.3743 -9.4892 2.77714
head 9.85599 -4.01715 0.2404
rclavicle -4.28381e-014 6.36111e-015
rhumerus 20.5376 7.45425 -104.973
rradius 45.6387
rwrist 6.32469
rhand -32.3779 8.27445
rfingers 7.12502
rthumb -5.61359 -21.6312
lclavicle -4.28381e-014 6.36111e-015
lhumerus -27.2492 -37.2351 98.9235
lradius 73.4448
lwrist 25.3504
lhand -14.8277 52.253
lfingers 7.12502
lthumb 11.331 1161.93
rfemur -51.1122 -17.7877 26.659
rtibia 58.0373
rfoot -11.0647 -18.9923
rtoes 11.7068
lfemur -12.1252 -3.01248 -24.9185
ltibia 32.3774
lfoot 333.458 14.4649
ltoes -5.33046
1055
root 0.589797 16.9649 -9.38504 194.711 114.387 183.31
lowerback -1.36026 3.3207 3.59108
upperback -2.24151 4.45506 0.806378
thorax -1.33328 2.1929 -1.16168
lowerneck -7.91896 -6.74221 -1.41643
upperneck 26.6058 -9.39579 2.6859
head 9.93311 -3.96428 0.197917
rclavicle 3.81667e-014 -1.03368e-014
rhumerus 20.9634 7.9916 -105.629
rradius 44.9366
rwrist 7.16783
rhand -32.2609 8.42335
rfingers 7.12502
rthumb -5.50061 -21.4853
lclavicle 3.81667e-014 -1.03368e-014
lhumerus -26.3305 -39.2499 99.438
lradius 73.3557
lwrist 26.115
lhand -14.7247 52.319
lfingers 7.12502
lthumb 11.4303 1161.99
rfemur -52.0451 -18.8503 28.026
rtibia 56.2674
rfoot -11.6669 -19.5538
rtoes 9.65758
lfemur -11.7136 -2.52109 -25.5366
ltibia 32.5808
lfoot 332.667 14.3388
ltoes -2.04684
1056
root 0.728941 16.9127 -9.36153 195.366 113.84 184.218
lowerback -1.51493 3.00842 3.45615
upperback -2.45987 4.0414 0.799854
thorax -1.49869 1.98461 -1.09651
lowerneck -7.66552 -6.71063 -1.30436
upperneck 26.8587 -9.33433 2.55602
head 9.96154 -3.93069 0.149339
rclavicle 5.34731e-014 1.27222e-014
rhumerus 20.8621 8.23047 -106.441
rradius 44.2833
rwrist 7.86504
rhand -31.8483 8.83033
rfingers 7.12502
rthumb -5.10225 -21.0882
lclavicle 5.34731e-014 1.27222e-014
lhumerus -25.9872 -40.9944 100.316
lradius 73.3583
lwrist 26.4943
lhand -14.4844 52.3504
lfingers 7.12502
lthumb 11.662 1162.01
rfemur -52.5396 -20.0385 29.4869
rtibia 53.8785
rfoot -11.7634 -19.8009
rtoes 5.26779
lfemur -11.0029 -1.94308 -26.034
ltibia 32.6087
lfoot 332.003 13.9985
ltoes -0.569312
1057
root 0.891277 16.8583 -9.32715 196.023 113.294 185.124
lowerback -1.81069 2.74873 3.3695
upperback -2.66665 3.69121 0.767942
thorax -1.56428 1.80928 -1.07503
lowerneck -7.5714 -6.79298 -1.38306
upperneck 27.2334 -9.45555 2.61486
head 10.0909 -3.9722 0.168704
rclavicle -7.95139e-015 -3.49861e-014
rhumerus 20.451 8.49302 -107.105
rradius 44.0462
rwrist 8.41591
rhand -31.2363 8.87286
rfingers 7.12502
rthumb -4.51131 -21.0591
lclavicle -7.95139e-015 -3.49861e-014
lhumerus -25.8816 -42.576 101.437
lradius 73.3661
lwrist 26.4722
lhand -13.9602 52.3987
lfingers 7.12502
lthumb 12.1675 1162.02
rfemur -52.6984 -21.143 30.9888
rtibia 51.0793
rfoot -12.1176 -19.6168
rtoes 1.46689
lfemur -10.0668 -1.44504 -26.4182
ltibia 32.3938
lfoot 331.474 13.6413
ltoes -0.507547
1058
root 1.07613 16.807 -9.2864 197.472 112.837 186.721
lowerback -2.47671 2.50286 3.13801
upperback -2.79488 3.34073 0.580359
thorax -1.33967 1.63972 -1.11334
lowerneck -7.67697 -6.89465 -1.49543
upperneck 27.5515 -9.63822 2.79454
head 10.2499 -4.03275 0.220887
rclavicle -7.30534e-015 -7.15625e-015
rhumerus 19.886 8.94353 -107.716
rradius 44.182
rwrist 8.96557
rhand -30.5714 8.229
rfingers 7.12502
rthumb -3.86926 -21.7156
lclavicle -7.30534e-015 -7.15625e-015
lhumerus -25.6449 -44.1653 102.481
lradius 73.1479
lwrist 26.141
lhand -13.4682 52.1308
lfingers 7.12502
lthumb 12.6418 1161.73
rfemur -52.7367 -22.0966 32.1351
rtibia 48.1428
rfoot -12.6171 -19.3616
rtoes 0.58735
lfemur -9.09938 -1.42362 -27.1295
ltibia 31.9933
lfoot 331.081 13.375
ltoes -0.765169
1059
root 1.28173 16.7557 -9.23816 199.211 112.483 188.674
lowerback -3.12039 2.27565 2.8669
upperback -2.92807 3.02042 0.291957
thorax -1.12794 1.48435 -1.23861
lowerneck -7.65601 -6.97275 -1.44759
upperneck 27.6868 -9.79259 2.90368
head 10.3041 -4.08087 0.232789
rclavicle 4.02539e-015 -1.51076e-014
rhumerus 19.0295 9.3261 -108.366
rradius 44.6014
rwrist 9.43318
rhand -30.2142 7.72627
rfingers 7.12502
rthumb -3.52436 -22.2243
lclavicle 4.02539e-015 -1.51076e-014
lhumerus -25.569 -45.6902 103.614
lradius 72.8059
lwrist 25.8323
lhand -13.1221 51.8389
lfingers 7.12502
lthumb 12.9755 1161.42
rfemur -52.4052 -22.7947 32.9541
rtibia 45.1797
rfoot -12.5322 -19.6945
rtoes 1.57956
lfemur -7.99808 -1.66523 -28.0193
ltibia 31.6297
lfoot 330.913 13.3964
ltoes -3.60836
1060
root 1.50778 16.7044 -9.17647 199.367 111.941 188.834
lowerback -3.85748 2.0816 3.27088
upperback -3.15162 2.73584 0.23293
thorax -0.938613 1.33864 -1.50763
lowerneck -7.58481 -7.06107 -1.47363
upperneck 27.8517 -9.95547 3.04088
head 10.3661 -4.13591 0.267342
rclavicle 2.80286e-014 -4.77083e-015
rhumerus 17.9107 9.80079 -108.739
rradius 45.1597
rwrist 9.25021
rhand -31.3434 7.78905
rfingers 7.12502
rthumb -4.61471 -22.1407
lclavicle 2.80286e-014 -4.77083e-015
lhumerus -25.9191 -46.863 105.094
lradius 72.5315
lwrist 25.4616
lhand -12.7867 51.6239
lfingers 7.12502
lthumb 13.2988 1161.18
rfemur -51.5819 -22.9337 34.3567
rtibia 42.0845
rfoot -12.0309 -20.0146
rtoes 3.12825
lfemur -7.18001 -1.62298 -27.9337
ltibia 31.826
lfoot 330.987 13.7078
ltoes -10.0907
1061
root 1.74144 16.6566 -9.0985 199.563 111.539 189.15
lowerback -4.42347 1.8976 3.32942
upperback -3.41714 2.4804 0.265562
thorax -0.908945 1.21147 -1.50126
lowerneck -7.48205 -7.1469 -1.57878
upperneck 28.1091 -10.0703 3.05941
head 10.4526 -4.18679 0.279361
rclavicle -8.12532e-015 -1.43125e-014
rhumerus 16.4692 10.3235 -108.892
rradius 46.0529
rwrist 8.97537
rhand -32.0846 7.35318
rfingers 7.12502
rthumb -5.33046 -22.5598
lclavicle -8.12532e-015 -1.43125e-014
lhumerus -26.6468 -47.5638 106.897
lradius 72.4089
lwrist 25.1865
lhand -12.5103 51.2405
lfingers 7.12502
lthumb 13.5652 1160.78
rfemur -50.1327 -22.3407 35.2478
rtibia 39.1867
rfoot -11.271 -19.476
rtoes 14.4465
lfemur -6.74576 -1.08175 -27.6537
ltibia 32.8617
lfoot 331.095 12.967
ltoes -14.1535
